<?xml version="1.0" standalone="no"?>
<svg viewBox="0 0 200 200" xmlns="http://www.w3.org/2000/svg">
  <path fill="#FF0066" d="M37,-54C51.3,-48.3,68.8,-43.8,78.6,-32.9C88.3,-21.9,90.2,-4.3,84.8,10C79.4,24.4,66.6,35.5,54.2,43.3C41.8,51.1,29.7,55.6,16.4,62.8C3,69.9,-11.6,79.7,-26.7,80.1C-41.7,80.6,-57.2,71.8,-66.6,58.9C-75.9,45.9,-79.1,28.9,-79.3,12.8C-79.4,-3.3,-76.4,-18.4,-69.7,-31.4C-63.1,-44.3,-52.7,-55,-40.4,-61.7C-28.2,-68.4,-14.1,-71.1,-1.4,-68.9C11.3,-66.7,22.6,-59.7,37,-54Z" transform="translate(100 100)" />
</svg>
